<svg width="30" height="31" viewBox="0 0 30 31" fill="none" xmlns="http://www.w3.org/2000/svg">
<g clip-path="url(#clip0_23_1882)">
<g clip-path="url(#clip1_23_1882)">
<g clip-path="url(#clip2_23_1882)">
<g opacity="0.9">
<path fill-rule="evenodd" clip-rule="evenodd" d="M22.6903 12.0524C22.8131 12.4058 22.4118 13.2168 21.4856 14.4871C21.3571 14.6633 21.1828 14.8977 20.9634 15.1902C20.7496 15.4715 20.6025 15.6702 20.5218 15.7865C20.4412 15.9027 20.3596 16.0396 20.2771 16.1961C20.1937 16.3536 20.1618 16.4699 20.1806 16.544C20.1993 16.619 20.234 16.7136 20.2846 16.8299C20.3362 16.9452 20.4225 17.0643 20.5462 17.1861C20.669 17.3071 20.8218 17.4533 21.0037 17.6249C21.0253 17.6352 21.0384 17.6465 21.044 17.6577C21.7987 18.3805 22.3096 18.9908 22.5778 19.4877C22.5937 19.5149 22.6106 19.5496 22.6293 19.5908C22.6481 19.6321 22.6668 19.7052 22.6856 19.8102C22.7046 19.9031 22.7033 19.9991 22.6818 20.0915C22.6603 20.1749 22.5937 20.2508 22.4812 20.3193C22.3687 20.3886 22.2112 20.4224 22.0078 20.4224L19.9518 20.4561C19.8008 20.4821 19.6456 20.4678 19.5018 20.4149C19.356 20.3707 19.216 20.3093 19.0846 20.2321L18.9234 20.1327C18.7184 19.9757 18.53 19.7982 18.3609 19.603C18.1716 19.3946 17.9884 19.1808 17.8115 18.9618C17.6695 18.7816 17.505 18.6203 17.3221 18.4818C17.1478 18.3515 16.9968 18.3093 16.8684 18.3533C16.8462 18.3612 16.8246 18.3706 16.8037 18.3815C16.6739 18.4776 16.5681 18.6024 16.4943 18.7461C16.4304 18.8833 16.3847 19.0283 16.3584 19.1774C16.3164 19.3884 16.2988 19.6036 16.3059 19.8186C16.3059 19.9011 16.2965 19.978 16.2778 20.0465C16.2653 20.1 16.2451 20.1515 16.2178 20.1993L16.1859 20.2405C16.0893 20.3455 15.9478 20.4065 15.7603 20.4233H14.8368C14.4413 20.4435 14.0452 20.3972 13.665 20.2865C13.2952 20.1867 12.94 20.0393 12.6084 19.8477C12.3235 19.6799 12.0476 19.4975 11.7815 19.3011C11.5808 19.1572 11.3915 18.998 11.2153 18.8249L11.0146 18.6261C10.9384 18.5456 10.8646 18.4628 10.7934 18.3777C10.5957 18.1318 10.4043 17.8808 10.2196 17.6249C9.92077 17.2185 9.63683 16.8014 9.3684 16.3743C9.01755 15.8052 8.68917 15.2226 8.38402 14.6277C8.00148 13.8931 7.65207 13.1417 7.33684 12.3758C7.30798 12.3045 7.29149 12.2287 7.28809 12.1518C7.28809 12.0908 7.29652 12.0468 7.31246 12.0196L7.34434 11.9699C7.42496 11.8649 7.57777 11.8124 7.80184 11.8124L10.0021 11.7955C10.1139 11.8155 10.2204 11.8579 10.3153 11.9202L10.3556 11.9446C10.4418 12.0055 10.5056 12.0946 10.5487 12.2099C10.6556 12.4855 10.7784 12.7715 10.9181 13.0668C11.0568 13.3621 11.1665 13.5871 11.2462 13.7418L11.3756 13.9818C11.5312 14.3127 11.6803 14.6005 11.8256 14.8424C11.97 15.0861 12.0993 15.2736 12.2146 15.4096C12.33 15.5446 12.4406 15.6515 12.5484 15.7283C12.6553 15.8061 12.7453 15.8446 12.8203 15.8446C12.8953 15.8446 12.9684 15.8305 13.0378 15.8033C13.0539 15.7925 13.0676 15.7785 13.0781 15.7621C13.1881 15.5891 13.2579 15.3937 13.2825 15.1902C13.3068 15.0308 13.3321 14.8068 13.3593 14.5199C13.3863 14.1754 13.3863 13.8294 13.3593 13.4849C13.3508 13.2818 13.3267 13.0796 13.2871 12.8802C13.2496 12.6983 13.2121 12.5708 13.1746 12.4996L13.125 12.4002C12.9909 12.2127 12.764 12.0936 12.4425 12.044C12.3731 12.0327 12.3862 11.9671 12.4828 11.8452C12.5681 11.7402 12.6703 11.6577 12.7884 11.5968C13.0715 11.4533 13.7118 11.3877 14.7075 11.398C15.1462 11.4036 15.5071 11.4402 15.7912 11.5058C15.8981 11.534 15.9881 11.5715 16.0603 11.6183C16.1337 11.6664 16.1912 11.7352 16.2253 11.8161C16.2628 11.9024 16.2909 11.9905 16.3096 12.0815C16.3284 12.1724 16.3378 12.298 16.3378 12.4583C16.3378 12.6177 16.335 12.7696 16.3284 12.914L16.3096 13.4971C16.3003 13.7427 16.2975 13.9705 16.2975 14.1805C16.2975 14.2415 16.2946 14.3568 16.289 14.5274C16.2841 14.6601 16.2828 14.793 16.2853 14.9258C16.2881 15.0196 16.2975 15.1311 16.3134 15.2605C16.3293 15.3908 16.3603 15.4977 16.4053 15.584C16.4475 15.6657 16.5098 15.7353 16.5862 15.7865C16.6293 15.7977 16.6743 15.809 16.7231 15.8193C16.7709 15.8305 16.8403 15.8005 16.9312 15.7283C17.0221 15.6571 17.1243 15.5615 17.2368 15.4433C17.3907 15.27 17.5303 15.0844 17.654 14.8883C17.82 14.6371 18.0018 14.3399 18.2006 13.9977C18.5212 13.424 18.8081 12.8033 19.0593 12.1349C19.0791 12.0831 19.1062 12.0345 19.14 11.9905C19.1641 11.9566 19.1939 11.9271 19.2281 11.9033L19.26 11.879L19.3003 11.8583L19.4043 11.833L19.5656 11.8293L21.8784 11.8124C22.0865 11.7843 22.2581 11.7918 22.3921 11.833C22.5262 11.8743 22.6087 11.9202 22.6406 11.9699L22.6903 12.0524Z" fill="white"/>
<path d="M15 29.5425C22.7665 29.5425 29.0625 23.2465 29.0625 15.48C29.0625 7.71348 22.7665 1.41748 15 1.41748C7.2335 1.41748 0.9375 7.71348 0.9375 15.48C0.9375 23.2465 7.2335 29.5425 15 29.5425Z" stroke="white" stroke-width="0.9075"/>
</g>
</g>
</g>
</g>
<defs>
<clipPath id="clip0_23_1882">
<rect width="30" height="30" fill="white" transform="translate(0 0.47998)"/>
</clipPath>
<clipPath id="clip1_23_1882">
<rect width="30" height="30" fill="white" transform="translate(0 0.47998)"/>
</clipPath>
<clipPath id="clip2_23_1882">
<rect width="30" height="30" fill="white" transform="translate(0 0.47998)"/>
</clipPath>
</defs>
</svg>
